PathFileType	4	(X/Y/Z)	/home/nbianco/projects/addbio/data/HamnerRunning2013/Processed/subject11//results/MarkerData/run200.trc
DataRate	CameraRate	NumFrames	NumMarkers	Units	OrigDataRate	OrigDataStartFrame	OrigNumFrames
100	100	8	42	m	100	54	219
Frame#	Time	C7			CLAV			LACR			LASI			LCAL			LFAradius			LFAsuperior			LFAulna			LLEL			LMEL			LMT5			LPSI			LTB1			LTB2			LTB3			LTH1			LTH2			LTH3			LTOE			LUA1			LUA2			LUA3			RACR			RASI			RCAL			RFAradius			RFAsuperior			RFAulna			RLEL			RMEL			RMT5			RPSI			RTB1			RTB2			RTB3			RTH1			RTH2			RTH3			RTOE			RUA1			RUA2			RUA3		
		X1	Y1	Z1	X2	Y2	Z2	X3	Y3	Z3	X4	Y4	Z4	X5	Y5	Z5	X6	Y6	Z6	X7	Y7	Z7	X8	Y8	Z8	X9	Y9	Z9	X10	Y10	Z10	X11	Y11	Z11	X12	Y12	Z12	X13	Y13	Z13	X14	Y14	Z14	X15	Y15	Z15	X16	Y16	Z16	X17	Y17	Z17	X18	Y18	Z18	X19	Y19	Z19	X20	Y20	Z20	X21	Y21	Z21	X22	Y22	Z22	X23	Y23	Z23	X24	Y24	Z24	X25	Y25	Z25	X26	Y26	Z26	X27	Y27	Z27	X28	Y28	Z28	X29	Y29	Z29	X30	Y30	Z30	X31	Y31	Z31	X32	Y32	Z32	X33	Y33	Z33	X34	Y34	Z34	X35	Y35	Z35	X36	Y36	Z36	X37	Y37	Z37	X38	Y38	Z38	X39	Y39	Z39	X40	Y40	Z40	X41	Y41	Z41	X42	Y42	Z42

55	1.95	0.648873	1.49268	-0.346896	0.759044	1.40178	-0.306852	0.714982	1.44253	-0.512452	0.7072	1.00355	-0.453313	0.455892	0.0996102	-0.339538	0.87039	1.04945	-0.510481	0.740708	1.08741	-0.60345	0.854644	0.988695	-0.545751	0.63717	1.11749	-0.628709	0.60529	1.10839	-0.556817	0.632593	0.0545708	-0.417912	0.534665	1.01476	-0.368471	0.700103	0.335807	-0.371855	0.623553	0.272231	-0.423435	0.619794	0.197858	-0.353188	0.651091	0.810754	-0.494672	0.737542	0.690906	-0.469784	0.698898	0.568202	-0.447273	0.686931	0.0694246	-0.32663	0.67094	1.34646	-0.583184	0.615662	1.26473	-0.551529	0.629548	1.20305	-0.60543	0.704915	1.48207	-0.175008	0.706015	0.987929	-0.182202	0.411901	0.306986	-0.254389	0.74544	1.04499	-0.0593277	0.619007	1.1373	-0.0245321	0.688902	1.00044	-0.0466584	0.531381	1.20474	-0.0344938	0.515433	1.19054	-0.111853	0.481135	0.145032	-0.168217	0.535355	1.00813	-0.265111	0.729823	0.37388	-0.24184	0.664277	0.36796	-0.180003	0.584571	0.290166	-0.238916	0.640383	0.787931	-0.152279	0.754625	0.706837	-0.15435	0.726679	0.581305	-0.186124	0.526341	0.110914	-0.250479	0.639395	1.4126	-0.0947614	0.563104	1.34793	-0.123872	0.580755	1.30014	-0.0668066
56	1.96	0.64892	1.49623	-0.346815	0.758812	1.40538	-0.306185	0.716012	1.44689	-0.511878	0.706716	1.00566	-0.453676	0.436208	0.100963	-0.339882	0.881898	1.06317	-0.504051	0.75177	1.094	-0.598944	0.869474	1.00124	-0.538479	0.646714	1.11904	-0.62543	0.615862	1.10954	-0.553176	0.612441	0.0538447	-0.417196	0.534501	1.01821	-0.36823	0.68076	0.335412	-0.368208	0.604784	0.27351	-0.423683	0.601045	0.199133	-0.352961	0.646696	0.813305	-0.494525	0.728835	0.691327	-0.469373	0.685521	0.569366	-0.447061	0.667071	0.0692426	-0.32673	0.675421	1.34978	-0.583066	0.621368	1.26734	-0.550623	0.63557	1.20479	-0.602066	0.703456	1.48552	-0.174628	0.705575	0.991646	-0.183125	0.429944	0.29399	-0.254065	0.73309	1.04532	-0.0601821	0.608229	1.14061	-0.0266241	0.675283	1.00249	-0.0499754	0.522919	1.21094	-0.0375765	0.50858	1.19749	-0.115427	0.510468	0.136765	-0.168695	0.534913	1.01131	-0.265735	0.744792	0.378866	-0.242729	0.679969	0.368951	-0.18042	0.603867	0.286424	-0.239094	0.642974	0.791441	-0.151454	0.759885	0.713418	-0.153949	0.734274	0.587648	-0.186168	0.557423	0.106815	-0.252445	0.636036	1.41679	-0.095331	0.5592	1.35389	-0.126199	0.575091	1.30545	-0.0685574
57	1.97	0.649063	1.50037	-0.346529	0.758756	1.40983	-0.305397	0.717157	1.4524	-0.51108	0.706716	1.00826	-0.453853	0.41669	0.102567	-0.340434	0.891854	1.07864	-0.49774	0.761677	1.10232	-0.594633	0.882704	1.01564	-0.531118	0.655321	1.12233	-0.622015	0.625345	1.1128	-0.549285	0.592336	0.0535258	-0.416848	0.534679	1.02243	-0.368029	0.660941	0.336321	-0.364783	0.585536	0.275517	-0.423991	0.582117	0.200975	-0.35266	0.642808	0.816423	-0.494365	0.719641	0.692265	-0.468674	0.671478	0.57146	-0.446652	0.646924	0.0685875	-0.326722	0.678793	1.35447	-0.582247	0.626227	1.27118	-0.550176	0.641448	1.20811	-0.598795	0.70196	1.48957	-0.174074	0.705422	0.996141	-0.183971	0.448945	0.279486	-0.253684	0.721251	1.04794	-0.0609935	0.597853	1.14573	-0.0287847	0.662548	1.00647	-0.0528515	0.514427	1.21811	-0.0405912	0.5017	1.20542	-0.118936	0.540997	0.128174	-0.169372	0.53478	1.01528	-0.266276	0.758829	0.384353	-0.243344	0.6952	0.369892	-0.181057	0.623407	0.282421	-0.239674	0.645579	0.795757	-0.150199	0.764701	0.720621	-0.153654	0.740901	0.594358	-0.186189	0.589641	0.102576	-0.254233	0.632525	1.42177	-0.0958306	0.555287	1.36062	-0.128354	0.56937	1.31162	-0.0699903
58	1.98	0.649135	1.50486	-0.346091	0.758883	1.41501	-0.304396	0.718336	1.45878	-0.510069	0.707177	1.01132	-0.453747	0.397468	0.104893	-0.341189	0.900241	1.09509	-0.491626	0.77041	1.11178	-0.590465	0.894272	1.03114	-0.523787	0.663238	1.127	-0.618762	0.633635	1.11767	-0.545586	0.572356	0.0537049	-0.416996	0.535164	1.0273	-0.36786	0.641147	0.338646	-0.362415	0.566173	0.278266	-0.424259	0.563115	0.203445	-0.352448	0.63879	0.819741	-0.493839	0.710238	0.693722	-0.467579	0.657163	0.574381	-0.446038	0.626442	0.0677199	-0.326677	0.68121	1.36023	-0.58095	0.630019	1.27593	-0.549701	0.647376	1.21262	-0.596078	0.700438	1.49412	-0.173317	0.705613	1.00132	-0.18464	0.469099	0.263709	-0.253451	0.7101	1.05243	-0.0617416	0.588034	1.15235	-0.0309668	0.65059	1.01201	-0.0550839	0.506075	1.22606	-0.0435735	0.494966	1.21413	-0.122414	0.572725	0.119533	-0.170244	0.535006	1.01995	-0.266662	0.772089	0.389904	-0.244049	0.709958	0.370658	-0.181739	0.643194	0.278303	-0.240636	0.648501	0.801258	-0.14857	0.768904	0.728211	-0.153439	0.74649	0.601272	-0.185849	0.622838	0.098315	-0.255753	0.628997	1.42738	-0.0962023	0.551486	1.36798	-0.130338	0.563676	1.31847	-0.0712288
59	1.99	0.649141	1.50963	-0.345503	0.759172	1.42076	-0.303122	0.719553	1.46574	-0.508837	0.708083	1.01474	-0.453279	0.378745	0.108511	-0.342173	0.907112	1.11193	-0.485776	0.778015	1.12185	-0.586251	0.904209	1.0472	-0.516573	0.670624	1.13262	-0.615885	0.640762	1.12365	-0.542449	0.552574	0.0541634	-0.417317	0.535945	1.03272	-0.367746	0.62178	0.342264	-0.361401	0.547061	0.281854	-0.424478	0.544276	0.206728	-0.352482	0.634434	0.823164	-0.492717	0.700857	0.69563	-0.466199	0.642857	0.578118	-0.445332	0.605949	0.0672079	-0.326676	0.683393	1.36673	-0.579503	0.633096	1.28154	-0.549095	0.653319	1.21801	-0.594121	0.698894	1.49907	-0.172367	0.706109	1.00708	-0.185061	0.490594	0.246941	-0.253665	0.699642	1.05831	-0.0624377	0.578804	1.16	-0.0331305	0.639401	1.01863	-0.0569084	0.498043	1.23458	-0.0465493	0.488553	1.22341	-0.125885	0.605557	0.1112	-0.171267	0.535501	1.02517	-0.266841	0.78462	0.395222	-0.245096	0.724311	0.371092	-0.18243	0.663217	0.274219	-0.241942	0.651817	0.808091	-0.146902	0.772464	0.735987	-0.153274	0.751014	0.608297	-0.184869	0.656841	0.0942008	-0.25711	0.625519	1.43351	-0.0964413	0.54789	1.37586	-0.132165	0.55816	1.32584	-0.0724083
60	2	0.649211	1.51467	-0.344769	0.759589	1.4269	-0.30159	0.720941	1.47298	-0.507379	0.709374	1.01838	-0.452444	0.360676	0.113752	-0.343351	0.912556	1.12873	-0.480205	0.784626	1.13213	-0.58201	0.912592	1.06339	-0.509566	0.677541	1.13889	-0.613506	0.646812	1.13031	-0.540075	0.533025	0.0546397	-0.417429	0.537019	1.03858	-0.3677	0.603116	0.346908	-0.361594	0.528473	0.286414	-0.424807	0.525924	0.210989	-0.352902	0.630055	0.826909	-0.491209	0.691658	0.697981	-0.464797	0.62888	0.582708	-0.444777	0.585925	0.0673758	-0.326779	0.686012	1.37367	-0.578104	0.636022	1.28797	-0.548593	0.659113	1.2241	-0.592857	0.697345	1.50435	-0.17129	0.706851	1.01327	-0.185231	0.513583	0.229508	-0.254404	0.689867	1.06509	-0.0630898	0.570171	1.1682	-0.0352402	0.629099	1.02589	-0.0586651	0.490493	1.24342	-0.0495202	0.482608	1.233	-0.129345	0.639363	0.103597	-0.172338	0.536176	1.03078	-0.266759	0.79623	0.40025	-0.246399	0.738309	0.371115	-0.183169	0.683453	0.270316	-0.243531	0.655262	0.815814	-0.145494	0.775521	0.743784	-0.153097	0.754568	0.615337	-0.183325	0.691504	0.0905052	-0.258477	0.622127	1.44005	-0.0965964	0.544534	1.38406	-0.133845	0.552968	1.33351	-0.0736331
61	2.01	0.649435	1.51992	-0.343919	0.760097	1.43322	-0.299865	0.722663	1.48025	-0.505705	0.710959	1.02216	-0.451289	0.343349	0.120573	-0.344608	0.916677	1.14517	-0.47483	0.790422	1.14247	-0.578053	0.919523	1.07939	-0.502874	0.683978	1.14561	-0.611678	0.651911	1.13737	-0.53849	0.513645	0.0550357	-0.417325	0.538374	1.04475	-0.367672	0.585324	0.352299	-0.362651	0.510544	0.29201	-0.425478	0.508362	0.216241	-0.353806	0.62593	0.831287	-0.489872	0.682749	0.70089	-0.463625	0.615553	0.588093	-0.444609	0.566579	0.0679338	-0.327013	0.689317	1.38084	-0.576814	0.639167	1.29499	-0.548488	0.664614	1.23076	-0.592128	0.695845	1.50983	-0.170182	0.707793	1.01969	-0.185214	0.538133	0.211792	-0.255435	0.680863	1.07233	-0.0636933	0.562172	1.17656	-0.0372645	0.619816	1.03344	-0.0604777	0.483557	1.25234	-0.0524607	0.477255	1.24268	-0.132765	0.674015	0.0970644	-0.173427	0.537053	1.03663	-0.266393	0.806618	0.405057	-0.247721	0.751898	0.370745	-0.183917	0.703844	0.266733	-0.245316	0.658449	0.823584	-0.14425	0.778254	0.751454	-0.15285	0.757269	0.622278	-0.181682	0.726706	0.0876092	-0.260014	0.61889	1.44687	-0.0967219	0.541446	1.39235	-0.135383	0.548216	1.34125	-0.0749401
62	2.02	0.649801	1.52519	-0.342999	0.760647	1.43953	-0.29803	0.724765	1.48735	-0.503842	0.712761	1.02608	-0.449873	0.326858	0.128684	-0.345846	0.919594	1.16098	-0.469534	0.795538	1.15281	-0.574705	0.925123	1.09484	-0.4966	0.689889	1.15263	-0.610382	0.656224	1.14461	-0.537618	0.49433	0.0553778	-0.41736	0.539981	1.05098	-0.367549	0.568505	0.35825	-0.364256	0.493326	0.298563	-0.426615	0.491784	0.222307	-0.35523	0.621737	0.836349	-0.489122	0.674225	0.704477	-0.462812	0.603073	0.594075	-0.444902	0.547749	0.068264	-0.327387	0.693185	1.38806	-0.575646	0.642598	1.3023	-0.548907	0.669771	1.23776	-0.59184	0.694493	1.51535	-0.169103	0.708892	1.02612	-0.185096	0.564182	0.194218	-0.256463	0.67279	1.07968	-0.0642449	0.554869	1.18482	-0.039184	0.611608	1.04102	-0.062266	0.477323	1.26115	-0.0553314	0.472614	1.25224	-0.136121	0.709352	0.0917526	-0.174694	0.538264	1.04261	-0.265822	0.815625	0.40964	-0.248924	0.764941	0.370088	-0.184593	0.724284	0.263603	-0.247194	0.66109	0.830772	-0.14282	0.780679	0.758824	-0.15256	0.759055	0.628963	-0.180496	0.762266	0.0859121	-0.261942	0.615923	1.4538	-0.096834	0.538701	1.40051	-0.136786	0.543964	1.34889	-0.0763022
